ffmpeg started on 2025-02-06 at 22:59:41
Report written to "videos/dist/libx264_default-crf-13-33/8381f07732fb.log"
Log level: 40
Command line:
ffmpeg -progress - -nostats -y -threads 4 -i videos/dist/libx264_default-crf-13-33/base.mkv -crf 30 -c:v libx264 -preset:v medium videos/dist/libx264_default-crf-13-33/8381f07732fb.mkv
ffmpeg version 7.1 Copyright (c) 2000-2024 the FFmpeg developers
  built with gcc 13 (Ubuntu 13.3.0-6ubuntu2~24.04)
  configuration: --enable-avisynth --enable-libaom --enable-libaribb24 --enable-libass --enable-libdav1d --enable-libfreetype --enable-libmp3lame --enable-libopus --enable-libsvtav1 --enable-libvmaf --enable-libvpl --enable-libvpx --enable-libx264 --enable-libx265 --enable-vaapi --enable-gpl --enable-nonfree --enable-version3 --disable-debug --disable-doc --disable-ffplay --disable-shared --enable-small --enable-static --enable-stripping --extra-libs='-lpthread -lm' --pkg-config-flags=--static --extra-cflags=-fopenmp --extra-ldflags='-fopenmp -Wl,--allow-multiple-definition -Wl,-z,stack-size=2097152' --toolchain=hardened
  libavutil      59. 39.100 / 59. 39.100
  libavcodec     61. 19.100 / 61. 19.100
  libavformat    61.  7.100 / 61.  7.100
  libavdevice    61.  3.100 / 61.  3.100
  libavfilter    10.  4.100 / 10.  4.100
  libswscale      8.  3.100 /  8.  3.100
  libswresample   5.  3.100 /  5.  3.100
  libpostproc    58.  3.100 / 58.  3.100
Input #0, matroska,webm, from 'videos/dist/libx264_default-crf-13-33/base.mkv':
  Metadata:
    ENCODER         : Lavf61.7.100
  Duration: 00:02:00.02, start: 0.000000, bitrate: 17503 kb/s
  Stream #0:0: Video: mpeg2video, yuv420p(tv, bt709/unknown/unknown, progressive), 1920x1080 [SAR 1:1 DAR 16:9], 29.97 fps, 29.97 tbr, 1k tbn
      Metadata:
        DURATION        : 00:02:00.020000000
      Side data:
        cpb: bitrate max/min/avg: 24000000/0/0 buffer size: 9781248 vbv_delay: N/A
[out#0/matroska @ 0x5c2342e6f980] No explicit maps, mapping streams automatically...
[vost#0:0/libx264 @ 0x5c2342e6b580] Created video stream from input stream 0:0
Stream mapping:
  Stream #0:0 -> #0:0 (mpeg2video (native) -> h264 (libx264))
[vost#0:0/libx264 @ 0x5c2342e6b580] Starting thread...
[vf#0:0 @ 0x5c2342e6da40] Starting thread...
[vist#0:0/mpeg2video @ 0x5c2342e70640] [dec:mpeg2video @ 0x5c2342e6edc0] Starting thread...
[in#0/matroska,webm @ 0x5c2342e5ee40] Starting thread...
Press [q] to stop, [?] for help
[graph -1 input from stream 0:0 @ 0x7d4bcc003140] w:1920 h:1080 pixfmt:yuv420p tb:1/1000 fr:30000/1001 sar:1/1 csp:bt709 range:tv
[graph -1 input from stream 0:0 @ 0x7d4bcc003140] video frame properties congruent with link at pts_time: 0
[libx264 @ 0x5c2342e6a0c0] using SAR=1/1
[libx264 @ 0x5c2342e6a0c0] using cpu capabilities: MMX2 SSE2Fast SSSE3 SSE4.2 AVX FMA3 BMI2 AVX2
[libx264 @ 0x5c2342e6a0c0] profile High, level 4.0, 4:2:0, 8-bit
[libx264 @ 0x5c2342e6a0c0] 264 - core 164 r3108 31e19f9 - H.264/MPEG-4 AVC codec - Copyleft 2003-2023 - http://www.videolan.org/x264.html - options: cabac=1 ref=3 deblock=1:0:0 analyse=0x3:0x113 me=hex subme=7 psy=1 psy_rd=1.00:0.00 mixed_ref=1 me_range=16 chroma_me=1 trellis=1 8x8dct=1 cqm=0 deadzone=21,11 fast_pskip=1 chroma_qp_offset=-2 threads=34 lookahead_threads=5 sliced_threads=0 nr=0 decimate=1 interlaced=0 bluray_compat=0 constrained_intra=0 bframes=3 b_pyramid=2 b_adapt=1 b_bias=0 direct=1 weightb=1 open_gop=0 weightp=2 keyint=250 keyint_min=25 scenecut=40 intra_refresh=0 rc_lookahead=40 rc=crf mbtree=1 crf=30.0 qcomp=0.60 qpmin=0 qpmax=69 qpstep=4 ip_ratio=1.40 aq=1:1.00
Output #0, matroska, to 'videos/dist/libx264_default-crf-13-33/8381f07732fb.mkv':
  Metadata:
    encoder         : Lavf61.7.100
  Stream #0:0: Video: h264 (H264 / 0x34363248), yuv420p(tv, bt709/unknown/unknown, progressive), 1920x1080 [SAR 1:1 DAR 16:9], q=2-31, 29.97 fps, 1k tbn
      Metadata:
        DURATION        : 00:02:00.020000000
        encoder         : Lavc61.19.100 libx264
      Side data:
        cpb: bitrate max/min/avg: 0/0/0 buffer size: 0 vbv_delay: N/A
[out#0/matroska @ 0x5c2342e6f980] Starting thread...
[in#0/matroska,webm @ 0x5c2342e5ee40] EOF while reading input
[in#0/matroska,webm @ 0x5c2342e5ee40] Terminating thread with return code 0 (success)
[vist#0:0/mpeg2video @ 0x5c2342e70640] [dec:mpeg2video @ 0x5c2342e6edc0] Decoder thread received EOF packet
[vist#0:0/mpeg2video @ 0x5c2342e70640] [dec:mpeg2video @ 0x5c2342e6edc0] Decoder returned EOF, finishing
[vist#0:0/mpeg2video @ 0x5c2342e70640] [dec:mpeg2video @ 0x5c2342e6edc0] Terminating thread with return code 0 (success)
[vf#0:0 @ 0x5c2342e6da40] Filtergraph returned EOF, finishing
[vf#0:0 @ 0x5c2342e6da40] All consumers returned EOF
[vf#0:0 @ 0x5c2342e6da40] Terminating thread with return code 0 (success)
[vost#0:0/libx264 @ 0x5c2342e6b580] Encoder thread received EOF
[vost#0:0/libx264 @ 0x5c2342e6b580] Terminating thread with return code 0 (success)
[out#0/matroska @ 0x5c2342e6f980] All streams finished
[out#0/matroska @ 0x5c2342e6f980] Terminating thread with return code 0 (success)
[AVIOContext @ 0x5c2342e7b300] Statistics: 33945092 bytes written, 2 seeks, 131 writeouts
[out#0/matroska @ 0x5c2342e6f980] Output file #0 (videos/dist/libx264_default-crf-13-33/8381f07732fb.mkv):
[out#0/matroska @ 0x5c2342e6f980]   Output stream #0:0 (video): 3597 frames encoded; 3597 packets muxed (33916783 bytes); 
[out#0/matroska @ 0x5c2342e6f980]   Total: 3597 packets (33916783 bytes) muxed
[out#0/matroska @ 0x5c2342e6f980] video:33122KiB audio:0KiB subtitle:0KiB other streams:0KiB global headers:0KiB muxing overhead: 0.081818%
frame= 3597 fps= 98 q=-1.0 Lsize=   33149KiB time=00:01:59.95 bitrate=2263.9kbits/s speed=3.26x    
[AVIOContext @ 0x5c2342e5ed00] Statistics: 15078 bytes written, 0 seeks, 74 writeouts
[libx264 @ 0x5c2342e6a0c0] frame I:32    Avg QP:26.11  size: 93346
[libx264 @ 0x5c2342e6a0c0] frame P:2596  Avg QP:29.92  size: 10933
[libx264 @ 0x5c2342e6a0c0] frame B:969   Avg QP:34.97  size:  2628
[libx264 @ 0x5c2342e6a0c0] consecutive B-frames: 58.4% 14.0%  9.3% 18.3%
[libx264 @ 0x5c2342e6a0c0] mb I  I16..4: 16.9% 74.8%  8.2%
[libx264 @ 0x5c2342e6a0c0] mb P  I16..4:  2.9%  4.3%  0.3%  P16..4: 24.1%  3.2%  2.4%  0.0%  0.0%    skip:62.8%
[libx264 @ 0x5c2342e6a0c0] mb B  I16..4:  0.7%  0.9%  0.0%  B16..8: 18.4%  0.5%  0.1%  direct: 0.3%  skip:79.1%  L0:38.6% L1:60.7% BI: 0.8%
[libx264 @ 0x5c2342e6a0c0] 8x8 transform intra:59.7% inter:81.1%
[libx264 @ 0x5c2342e6a0c0] coded y,uvDC,uvAC intra: 28.0% 32.1% 5.9% inter: 5.4% 4.7% 0.2%
[libx264 @ 0x5c2342e6a0c0] i16 v,h,dc,p: 33% 27% 15% 25%
[libx264 @ 0x5c2342e6a0c0] i8 v,h,dc,ddl,ddr,vr,hd,vl,hu: 24% 13% 44%  2%  3%  6%  2%  3%  3%
[libx264 @ 0x5c2342e6a0c0] i4 v,h,dc,ddl,ddr,vr,hd,vl,hu: 42% 18% 15%  3%  5%  6%  4%  4%  3%
[libx264 @ 0x5c2342e6a0c0] i8c dc,h,v,p: 67% 16% 15%  2%
[libx264 @ 0x5c2342e6a0c0] Weighted P-Frames: Y:1.3% UV:0.4%
[libx264 @ 0x5c2342e6a0c0] ref P L0: 66.2% 13.3% 14.2%  6.2%  0.1%
[libx264 @ 0x5c2342e6a0c0] ref B L0: 84.1% 13.8%  2.1%
[libx264 @ 0x5c2342e6a0c0] ref B L1: 98.6%  1.4%
[libx264 @ 0x5c2342e6a0c0] kb/s:2260.70
[in#0/matroska,webm @ 0x5c2342e5ee40] Input file #0 (videos/dist/libx264_default-crf-13-33/base.mkv):
[in#0/matroska,webm @ 0x5c2342e5ee40]   Input stream #0:0 (video): 3597 packets read (262560438 bytes); 3597 frames decoded; 0 decode errors; 
[in#0/matroska,webm @ 0x5c2342e5ee40]   Total: 3597 packets (262560438 bytes) demuxed
[AVIOContext @ 0x5c2342e70940] Statistics: 262601028 bytes read, 0 seeks
